<svg width="40" height="40" viewBox="0 0 40 40" fill="none" xmlns="http://www.w3.org/2000/svg">
<path d="M32.2098 9.62954C33.3333 11.311 33.3333 13.6518 33.3333 18.3333C33.3333 23.0149 33.3333 25.3556 32.2098 27.0371C31.7234 27.7651 31.0984 28.3901 30.3704 28.8765C28.9015 29.858 26.9295 29.982 23.3333 29.9977V30L21.4907 33.6852C20.8765 34.9137 19.1235 34.9137 18.5092 33.6852L16.6666 30V29.9977C13.0705 29.982 11.0984 29.858 9.62949 28.8765C8.90156 28.3901 8.27655 27.7651 7.79016 27.0371C6.66663 25.3556 6.66663 23.0149 6.66663 18.3333C6.66663 13.6518 6.66663 11.311 7.79016 9.62954C8.27655 8.9016 8.90156 8.2766 9.62949 7.79021C11.311 6.66667 13.6518 6.66667 18.3333 6.66667H21.6666C26.3482 6.66667 28.6889 6.66667 30.3704 7.79021C31.0984 8.2766 31.7234 8.9016 32.2098 9.62954Z" stroke="white" stroke-width="2" stroke-linecap="round" stroke-linejoin="round"/>
<path d="M15 15L25 15" stroke="white" stroke-width="2" stroke-linecap="round" stroke-linejoin="round"/>
<path d="M15 21.6667H20" stroke="white" stroke-width="2" stroke-linecap="round" stroke-linejoin="round"/>
</svg>
