<svg width="40" height="40" viewBox="0 0 40 40" fill="none" xmlns="http://www.w3.org/2000/svg">
<path d="M3.33337 20L2.16207 19.063L1.41244 20L2.16207 20.9371L3.33337 20ZM18.3334 21.5C19.1618 21.5 19.8334 20.8284 19.8334 20C19.8334 19.1716 19.1618 18.5 18.3334 18.5V21.5ZM10 11.6667L8.82874 10.7296L2.16207 19.063L3.33337 20L4.50468 20.9371L11.1713 12.6037L10 11.6667ZM3.33337 20L2.16207 20.9371L8.82874 29.2704L10 28.3334L11.1713 27.3963L4.50468 19.063L3.33337 20ZM3.33337 20V21.5H18.3334V20V18.5H3.33337V20Z" fill="white"/>
<path d="M16.6666 13.5532V10.0552C16.6666 8.43681 16.6666 7.62764 17.1406 7.06815C17.6145 6.50866 18.4127 6.37563 20.009 6.10958L29.6802 4.49771C32.9233 3.9572 34.5449 3.68694 35.6058 4.58563C36.6666 5.48433 36.6666 7.12825 36.6666 10.4161V29.5839C36.6666 32.8717 36.6666 34.5156 35.6058 35.4143C34.5449 36.313 32.9233 36.0428 29.6802 35.5022L20.009 33.8904C18.4127 33.6243 17.6145 33.4913 17.1406 32.9318C16.6666 32.3723 16.6666 31.5631 16.6666 29.9448V26.7766" stroke="white" stroke-width="3"/>
</svg>
