<svg width="40" height="40" viewBox="0 0 40 40" fill="none" xmlns="http://www.w3.org/2000/svg">
<circle cx="20" cy="13.3333" r="4" stroke="white" stroke-width="2" stroke-linecap="round"/>
<path d="M23.0909 10.9167C23.404 10.3743 23.871 9.93692 24.4327 9.65991C24.9944 9.3829 25.6257 9.27869 26.2466 9.36043C26.8676 9.44218 27.4503 9.70623 27.9212 10.1192C28.3921 10.5321 28.73 11.0755 28.8921 11.6804C29.0542 12.2854 29.0332 12.9248 28.8319 13.5179C28.6306 14.111 28.2579 14.631 27.761 15.0123C27.2642 15.3936 26.6654 15.6189 26.0404 15.6599C25.4154 15.7009 24.7924 15.5556 24.25 15.2424" stroke="white" stroke-width="2"/>
<path d="M16.9091 10.9167C16.596 10.3743 16.129 9.93692 15.5673 9.65991C15.0056 9.3829 14.3743 9.27869 13.7534 9.36043C13.1324 9.44218 12.5497 9.70623 12.0788 10.1192C11.6079 10.5321 11.27 11.0755 11.1079 11.6804C10.9458 12.2854 10.9668 12.9248 11.1681 13.5179C11.3694 14.111 11.7421 14.631 12.239 15.0123C12.7358 15.3936 13.3346 15.6189 13.9596 15.6599C14.5846 15.7009 15.2076 15.5556 15.75 15.2424" stroke="white" stroke-width="2"/>
<path d="M20 20.8333C27.3777 20.8333 28.8176 27.311 29.0986 29.8394C29.1596 30.3883 28.719 30.8333 28.1667 30.8333H11.8334C11.2811 30.8333 10.8405 30.3883 10.9015 29.8394C11.1825 27.311 12.6223 20.8333 20 20.8333Z" stroke="white" stroke-width="2" stroke-linecap="round"/>
<path d="M32.3234 26.4121L31.3433 26.6105V26.6105L32.3234 26.4121ZM21.8118 20.9765L21.0733 20.3022L19.8324 21.6613L21.6478 21.963L21.8118 20.9765ZM28.6355 27.5L27.6749 27.7779L27.8838 28.5H28.6355V27.5ZM25.8333 20.1667C27.6472 20.1667 28.8799 21.1424 29.7627 22.4904C30.6619 23.8637 31.1247 25.5305 31.3433 26.6105L33.3036 26.2137C33.0651 25.0356 32.5392 23.0797 31.4358 21.3948C30.3159 19.6846 28.5321 18.1667 25.8333 18.1667V20.1667ZM22.5503 21.6508C23.3583 20.7657 24.4057 20.1667 25.8333 20.1667V18.1667C23.7499 18.1667 22.192 19.077 21.0733 20.3022L22.5503 21.6508ZM21.6478 21.963C25.3904 22.5849 26.9796 25.3748 27.6749 27.7779L29.5961 27.2221C28.8027 24.4797 26.8171 20.7946 21.9757 19.99L21.6478 21.963ZM31.3949 26.5H28.6355V28.5H31.3949V26.5ZM31.3433 26.6105C31.3416 26.6021 31.3406 26.5843 31.3465 26.5629C31.3519 26.543 31.361 26.5282 31.3693 26.5187C31.3859 26.4995 31.3999 26.5 31.3949 26.5V28.5C32.5579 28.5 33.5581 27.4711 33.3036 26.2137L31.3433 26.6105Z" fill="white"/>
<path d="M18.1882 20.9765L18.3522 21.963L20.1676 21.6613L18.9267 20.3022L18.1882 20.9765ZM7.67653 26.4121L8.65666 26.6105H8.65666L7.67653 26.4121ZM11.3646 27.5V28.5H12.1163L12.3252 27.7779L11.3646 27.5ZM14.1667 20.1667C15.5943 20.1667 16.6417 20.7657 17.4497 21.6508L18.9267 20.3022C17.808 19.077 16.2501 18.1667 14.1667 18.1667V20.1667ZM8.65666 26.6105C8.87527 25.5305 9.33809 23.8637 10.2373 22.4904C11.1201 21.1424 12.3528 20.1667 14.1667 20.1667V18.1667C11.4679 18.1667 9.68408 19.6846 8.56417 21.3948C7.46079 23.0797 6.93488 25.0356 6.69641 26.2137L8.65666 26.6105ZM8.60506 26.5C8.60007 26.5 8.61409 26.4995 8.63068 26.5187C8.63896 26.5282 8.64803 26.543 8.65348 26.5629C8.65932 26.5843 8.65836 26.6021 8.65666 26.6105L6.69641 26.2137C6.4419 27.471 7.44204 28.5 8.60506 28.5V26.5ZM11.3646 26.5H8.60506V28.5H11.3646V26.5ZM12.3252 27.7779C13.0204 25.3748 14.6096 22.5849 18.3522 21.963L18.0243 19.99C13.1829 20.7946 11.1973 24.4797 10.4039 27.2221L12.3252 27.7779Z" fill="white"/>
</svg>
